<?xml version="1.0" encoding="UTF-8"?>
<svg xmlns="http://www.w3.org/2000/svg" xmlns:xlink="http://www.w3.org/1999/xlink" width="48pt" height="48pt" viewBox="0 0 48 48" version="1.1">
<g id="surface1">
<path style=" stroke:none;fill-rule:nonzero;fill:#F6F6F6;fill-opacity:1;" d="M 8.828125 3.992188 L 2.007813 4.03125 L 2.03125 8.03125 L 6.171875 8.007813 L 12.757813 23.8125 L 10.359375 27.648438 C 8.6875 30.320313 10.726563 34 13.882813 34 L 38 34 L 38 30 L 13.882813 30 C 13.664063 30 13.632813 29.953125 13.75 29.765625 L 16.109375 26 L 31.039063 26 C 32.492188 26 33.835938 25.210938 34.539063 23.9375 L 41.742188 10.96875 C 42.484375 9.640625 41.523438 8 40 8 L 10.5 8 Z M 14 36 C 11.789063 36 10 37.789063 10 40 C 10 42.210938 11.789063 44 14 44 C 16.210938 44 18 42.210938 18 40 C 18 37.789063 16.210938 36 14 36 Z M 34 36 C 31.789063 36 30 37.789063 30 40 C 30 42.210938 31.789063 44 34 44 C 36.210938 44 38 42.210938 38 40 C 38 37.789063 36.210938 36 34 36 Z "/>
</g>
</svg>
