<?xml version="1.0" encoding="UTF-8"?>
<svg xmlns="http://www.w3.org/2000/svg" xmlns:xlink="http://www.w3.org/1999/xlink" width="52pt" height="52pt" viewBox="0 0 52 52" version="1.1">
<g id="surface1">
<path style=" stroke:none;fill-rule:nonzero;fill:#f6f6f6;fill-opacity:1;" d="M 21.667969 -0.0625 C 20.019531 -0.0625 18.40625 0.261719 17.234375 1.414063 C 16.066406 2.570313 15.695313 4.207031 15.695313 5.910156 L 7.878906 5.910156 C 6.792969 5.910156 5.910156 6.792969 5.910156 7.878906 L 3.9375 7.878906 L 3.9375 11.816406 L 47.273438 11.816406 L 47.273438 7.878906 L 45.304688 7.878906 C 45.304688 6.792969 44.417969 5.910156 43.332031 5.910156 L 35.515625 5.910156 C 35.515625 4.207031 35.148438 2.570313 33.976563 1.414063 C 32.808594 0.261719 31.191406 -0.0625 29.546875 -0.0625 Z M 21.667969 4 L 29.546875 4 C 30.621094 4 30.960938 4.253906 31.085938 4.371094 C 31.207031 4.484375 31.453125 4.808594 31.453125 5.910156 L 19.757813 5.910156 C 19.757813 4.808594 20.003906 4.484375 20.128906 4.371094 C 20.25 4.253906 20.589844 4 21.667969 4 Z M 7.878906 13.789063 L 7.878906 45.304688 C 7.878906 48.558594 10.535156 51.210938 13.789063 51.210938 L 37.425781 51.210938 C 40.679688 51.210938 43.332031 48.558594 43.332031 45.304688 L 43.332031 13.789063 Z M 15.757813 19.695313 L 19.695313 19.695313 L 19.695313 43.332031 L 15.757813 43.332031 Z M 23.636719 19.695313 L 27.574219 19.695313 L 27.574219 43.332031 L 23.636719 43.332031 Z M 31.515625 19.695313 L 35.453125 19.695313 L 35.453125 43.332031 L 31.515625 43.332031 Z "/>
</g>
</svg>
